<svg width="20" height="20" viewBox="0 0 20 20" fill="none" xmlns="http://www.w3.org/2000/svg">
    <circle cx="10" cy="10" r="9.5" fill="#6A668A" stroke="#AA92BA"/>
    <g filter="url(#jedyg4f9ba)" fill="#fff">
        <path d="M9.722 6.382V4.408h.695V3.75H12.5v.658h.694v1.974H12.5v.657h-2.083v-.657h-.695zM6.944 9.671v-.658h.695v-.658h1.389v-.658h2.083v.658h.695v1.974h-.695v1.974h-.694v1.973h1.389v-.658h.694v.658h-.694v.658h-.695v.658H9.722v.658H7.64v-.658h-.695v-1.974h.695v-1.973h.694V9.67H6.944v.658H6.25V9.67h.694z"/>
    </g>
    <defs>
        <filter id="jedyg4f9ba" x="6.25" y="3.75" width="6.944" height="13.5" filterUnits="userSpaceOnUse" color-interpolation-filters="sRGB">
            <feFlood flood-opacity="0" result="BackgroundImageFix"/>
            <feColorMatrix in="SourceAlpha" values="0 0 0 0 0 0 0 0 0 0 0 0 0 0 0 0 0 0 127 0" result="hardAlpha"/>
            <feOffset dy="1"/>
            <feComposite in2="hardAlpha" operator="out"/>
            <feColorMatrix values="0 0 0 0 0 0 0 0 0 0 0 0 0 0 0 0 0 0 0.25 0"/>
            <feBlend in2="BackgroundImageFix" result="effect1_dropShadow_21828_86323"/>
            <feBlend in="SourceGraphic" in2="effect1_dropShadow_21828_86323" result="shape"/>
        </filter>
    </defs>
</svg>
