<svg width="33" height="33" viewBox="0 0 33 33" fill="none" xmlns="http://www.w3.org/2000/svg">
<g clip-path="url(#clip0_995_28214)">
<path d="M27 0H6C2.68629 0 0 2.68629 0 6V27C0 30.3137 2.68629 33 6 33H27C30.3137 33 33 30.3137 33 27V6C33 2.68629 30.3137 0 27 0Z" fill="#23292F"/>
<g clip-path="url(#clip1_995_28214)">
<path d="M22.3633 9H24.9648L19.5508 14.0347C17.5901 15.857 14.4113 15.857 12.4492 14.0347L7.03302 9H9.63669L13.75 12.8246C14.3493 13.3793 15.1569 13.6903 15.9984 13.6903C16.8398 13.6903 17.6475 13.3793 18.2468 12.8246L22.3633 9Z" fill="white"/>
<path d="M9.60332 22.9999H7L12.4492 17.9341C14.4099 16.1118 17.5887 16.1118 19.5508 17.9341L25 22.9999H22.3984L18.25 19.1443C17.6507 18.5895 16.843 18.2785 16.0016 18.2785C15.1601 18.2785 14.3525 18.5895 13.7532 19.1443L9.60332 22.9999Z" fill="white"/>
</g>
<path d="M27 1H6C3.23858 1 1 3.23858 1 6V27C1 29.7614 3.23858 32 6 32H27C29.7614 32 32 29.7614 32 27V6C32 3.23858 29.7614 1 27 1Z" stroke="#3D4752" stroke-width="2"/>
</g>
<defs>
<clipPath id="clip0_995_28214">
<rect width="33" height="33" fill="white"/>
</clipPath>
<clipPath id="clip1_995_28214">
<rect width="18" height="14" fill="white" transform="translate(7 9)"/>
</clipPath>
</defs>
</svg>
