<svg xmlns="http://www.w3.org/2000/svg" width="32" height="33" fill="none" viewBox="0 0 32 33"><path fill="#2F3045" d="M25.739 8.348h-4.87V6.26h4.87v2.087zm0 6.958h-4.87v-2.087h4.87zm2.089-2.088H25.74v-4.87h2.087v4.87z"/><path fill="#2F3045" d="M20.872 13.218h-2.088v-4.87h2.088zM13.914 2.087H9.739V0h4.175zm0 6.261H9.739V6.26h4.175v2.087z"/><path fill="#2F3045" d="M15.996 6.262H13.91V2.087h2.087zm-6.25 0H7.659V2.087h2.087zM6.261 17.393H0v14.61h6.261zm18.086 2.087v2.087h-2.783v2.087h-8.348v-2.087h8.348v-4.174H8.346v12.522h2.087v2.087h11.131v-2.087h4.175v-2.087h2.087v-2.087h2.087v-2.087H32V19.48z"/></svg>