<svg width="41" height="41" viewBox="0 0 41 41" fill="none" xmlns="http://www.w3.org/2000/svg">
<path d="M13.12 0H27.88V1.64H31.16V3.28H32.8V4.92H34.44V6.56H36.08V8.2H37.72V9.84H39.36V13.12H41V27.88H39.36V31.16H37.72V32.8H36.08V34.44H34.44V36.08H32.8V37.72H31.16V39.36H27.88V41H13.12V39.36H9.84V37.72H8.2V36.08H6.56V34.44H4.92V32.8H3.28V31.16H1.64V27.88H0V13.12H1.64V9.84H3.28V8.2H4.92V6.56H6.56V4.92H8.2V3.28H9.84V1.64H13.12V0Z" fill="#475991"/>
<path d="M3.27989 13.1206H1.63989V27.8806H3.27989V31.1606H4.91989V32.8006H6.55989V34.4406H8.19989V36.0806H9.83989V37.7206H13.1199V39.3606H27.8799V37.7206H31.1599V36.0806H32.7999V34.4406H34.4399V32.8006H36.0799V31.1606H37.7199V27.8806H39.3599V13.1206H37.7199V9.84063H36.0799V8.20063H34.4399V6.56063H32.7999V4.92063H31.1599V3.28063H27.8799V1.64062H13.1199V3.28063H9.83989V4.92063H8.19989V6.56063H6.55989V8.20063H4.91989V9.84063H3.27989V13.1206Z" fill="#6D87DE"/>
<path d="M3.27989 13.1206H1.63989V27.8806H3.27989V31.1606H4.91989V32.8006H6.55989V34.4406H8.19989V36.0806H9.83989V37.7206H13.1199V39.3606H27.8799V37.7206H31.1599V36.0806H32.7999V34.4406H34.4399V32.8006H36.0799V31.1606H37.7199V27.8806H39.3599V13.1206H37.7199V9.84063H36.0799V8.20063H34.4399V6.56063H32.7999V4.92063H31.1599V3.28063H27.8799V1.64062H13.1199V3.28063H9.83989V4.92063H8.19989V6.56063H6.55989V8.20063H4.91989V9.84063H3.27989V13.1206Z" fill="#6D87DE"/>
<path d="M3.28003 13.1193V31.1593H4.92003V32.7993H6.56003V34.4393H8.20003V36.0793H9.84003V37.7193H13.12V39.3593H27.88V37.7193H31.16V36.0793H32.8V34.4393H34.44V32.7993H36.08V31.1593H37.72V27.8793H39.36V13.1193H37.72V9.8393H36.08V8.1993H32.8V6.5593H31.16V4.9193H27.88V3.2793H13.12V4.9193H9.84003V6.5593H8.20003V8.1993H6.56003V9.8393H4.92003V13.1193H3.28003Z" fill="#5468AB"/>
<path d="M37.72 27.8793H36.08V31.1593H34.44V32.7993H32.8V34.4393H31.16V36.0793H27.88V37.7193H13.12V36.0793H9.84003V34.4393H8.20003V32.7993H6.56003V31.1593H3.28003V13.1193H4.92003V9.8393H6.56003V8.1993H8.20003V6.5593H9.84003V4.9193H13.12V3.2793H27.88V4.9193H31.16V6.5593H32.8V8.1993H36.08V9.8393H37.72V27.8793Z" fill="#6178C6"/>
<path fill-rule="evenodd" clip-rule="evenodd" d="M4.91992 21.3198H6.55992V16.3998H8.19992V13.1198H9.83992V11.4798H11.4799V9.83984H16.3999V11.4798H13.1199V13.1198H11.4799V14.7598H13.1199V13.1198H16.3999V11.4798H24.5999V13.1198H27.8799V14.7598H29.5199V13.1198H27.8799V11.4798H24.5999V9.83984H29.5199V11.4798H31.1599V13.1198H32.7999V16.3998H34.4399V21.3198H36.0799V27.8798H34.4399V29.5198H31.1599V31.1598H26.2399V27.8798H29.5199V26.2398H26.2399V27.8798H14.7599V26.2398H11.4799V27.8798H14.7599V31.1598H9.83992V29.5198H6.55992V27.8798H4.91992V21.3198ZM13.1199 19.6798H18.0399V24.5998H13.1199V19.6798ZM27.8799 19.6798V24.5998H22.9599V19.6798H27.8799Z" fill="white"/>
</svg>
