<svg width="25" height="25" viewBox="0 0 25 25" fill="none" xmlns="http://www.w3.org/2000/svg">
<path d="M8 0H17V1H19V2H20V3H21V4H22V5H23V6H24V8H25V17H24V19H23V20H22V21H21V22H20V23H19V24H17V25H8V24H6V23H5V22H4V21H3V20H2V19H1V17H0V8H1V6H2V5H3V4H4V3H5V2H6V1H8V0Z" fill="#0277B0"/>
<path d="M2 8H1V17H2V19H3V20H4V21H5V22H6V23H8V24H17V23H19V22H20V21H21V20H22V19H23V17H24V8H23V6H22V5H21V4H20V3H19V2H17V1H8V2H6V3H5V4H4V5H3V6H2V8Z" fill="#03AAFC"/>
<path d="M2 8H1V17H2V19H3V20H4V21H5V22H6V23H8V24H17V23H19V22H20V21H21V20H22V19H23V17H24V8H23V6H22V5H21V4H20V3H19V2H17V1H8V2H6V3H5V4H4V5H3V6H2V8Z" fill="#03AAFC"/>
<path d="M2 8V19H3V20H4V21H5V22H6V23H8V24H17V23H19V22H20V21H21V20H22V19H23V17H24V8H23V6H22V5H20V4H19V3H17V2H8V3H6V4H5V5H4V6H3V8H2Z" fill="#0388C9"/>
<path d="M23 17H22V19H21V20H20V21H19V22H17V23H8V22H6V21H5V20H4V19H2V8H3V6H4V5H5V4H6V3H8V2H17V3H19V4H20V5H22V6H23V17Z" fill="#039BE5"/>
<path d="M8 15H10V19H11V18H12V17H13V18H14V19H16V16H17V13H18V10H19V6H17V7H15V8H13V9H11V10H9V11H7V12H5V14H8V15Z" fill="white"/>
<path d="M11 19V16H12V17H13V18H12V19H11Z" fill="#B0C8DB"/>
<path d="M16 9V10H15V11H14V12H13V13H12V14H11V19H10V14H11V13H12V12H13V11H14V10H15V9H16Z" fill="#CCDAE8"/>
</svg>
