<svg width="40" height="40" viewBox="0 0 40 40" fill="none" xmlns="http://www.w3.org/2000/svg">
<path d="M12.8 0H27.2V1.6H30.4V3.2H32V4.8H33.6V6.4H35.2V8H36.8V9.6H38.4V12.8H40V27.2H38.4V30.4H36.8V32H35.2V33.6H33.6V35.2H32V36.8H30.4V38.4H27.2V40H12.8V38.4H9.6V36.8H8V35.2H6.4V33.6H4.8V32H3.2V30.4H1.6V27.2H0V12.8H1.6V9.6H3.2V8H4.8V6.4H6.4V4.8H8V3.2H9.6V1.6H12.8V0Z" fill="#0A0A0A"/>
<path d="M3.2001 12.8001H1.6001V27.2001H3.2001V30.4001H4.8001V32.0001H6.4001V33.6001H8.0001V35.2001H9.6001V36.8001H12.8001V38.4001H27.2001V36.8001H30.4001V35.2001H32.0001V33.6001H33.6001V32.0001H35.2001V30.4001H36.8001V27.2001H38.4001V12.8001H36.8001V9.6001H35.2001V8.0001H33.6001V6.4001H32.0001V4.8001H30.4001V3.2001H27.2001V1.6001H12.8001V3.2001H9.6001V4.8001H8.0001V6.4001H6.4001V8.0001H4.8001V9.6001H3.2001V12.8001Z" fill="#474747"/>
<path d="M3.2001 12.8001H1.6001V27.2001H3.2001V30.4001H4.8001V32.0001H6.4001V33.6001H8.0001V35.2001H9.6001V36.8001H12.8001V38.4001H27.2001V36.8001H30.4001V35.2001H32.0001V33.6001H33.6001V32.0001H35.2001V30.4001H36.8001V27.2001H38.4001V12.8001H36.8001V9.6001H35.2001V8.0001H33.6001V6.4001H32.0001V4.8001H30.4001V3.2001H27.2001V1.6001H12.8001V3.2001H9.6001V4.8001H8.0001V6.4001H6.4001V8.0001H4.8001V9.6001H3.2001V12.8001Z" fill="#474747"/>
<path d="M3.2002 12.8V30.4H4.8002V32H6.4002V33.6H8.0002V35.2H9.6002V36.8H12.8002V38.4H27.2002V36.8H30.4002V35.2H32.0002V33.6H33.6002V32H35.2002V30.4H36.8002V27.2H38.4002V12.8H36.8002V9.59995H35.2002V7.99995H32.0002V6.39995H30.4002V4.79995H27.2002V3.19995H12.8002V4.79995H9.6002V6.39995H8.0002V7.99995H6.4002V9.59995H4.8002V12.8H3.2002Z" fill="#1F1F1F"/>
<path d="M36.6 27H35V30.2H33.4V31.8H31.8V33.4H30.2V35H27V36.6H12.6V35H9.4V33.4H7.8V31.8H6.2V30.2H3V12.6H4.6V9.4H6.2V7.8H7.8V6.2H9.4V4.6H12.6V3H27V4.6H30.2V6.2H31.8V7.8H35V9.4H36.6V27Z" fill="#333333"/>
<path fill-rule="evenodd" clip-rule="evenodd" d="M9.6001 27.9999V29.5999H12.8001V27.9999H14.4001V26.3999H16.0001V24.7999H17.6001V23.1999H20.8001V24.7999H22.4001V26.3999H24.0001V27.9999H25.6001V29.5999H30.4001V26.3999H28.8001V24.7999H27.2001V23.1999H25.6001V21.5999H24.0001V19.9999H22.4001V18.3999H24.0001V16.7999H25.6001V15.1999H27.2001V13.5999H28.8001V11.9999H30.4001V10.3999H27.2001V11.9999H25.6001V13.5999H24.0001V15.1999H22.4001V16.7999H19.2001V15.1999H17.6001V13.5999H16.0001V11.9999H14.4001V10.3999H9.6001V13.5999H11.2001V15.1999H12.8001V16.7999H14.4001V18.3999H16.0001V19.9999H17.6001V21.5999H16.0001V23.1999H14.4001V24.7999H12.8001V26.3999H11.2001V27.9999H9.6001ZM17.6001 19.9999H19.2001V21.5999H20.8001V23.1999H22.4001V24.7999H24.0001V26.3999H25.6001V27.9999H28.8001V26.3999H27.2001V24.7999H25.6001V23.1999H24.0001V21.5999H22.4001V19.9999H20.8001V18.3999H19.2001V16.7999H17.6001V15.1999H16.0001V13.5999H14.4001V11.9999H11.2001V13.5999H12.8001V15.1999H14.4001V16.7999H16.0001V18.3999H17.6001V19.9999Z" fill="white"/>
</svg>
